<mxfile host="app.diagrams.net" modified="2023-06-26T03:50:35.387Z" agent="Mozilla/5.0 (Windows NT 10.0; Win64; x64) AppleWebKit/537.36 (KHTML, like Gecko) Chrome/114.0.0.0 Safari/537.36" etag="LCZiqVJr-544E1yS8oIY" version="21.5.0" type="device">
  <diagram id="52qt780cXm8w2pSkyaJ1" name="第 1 页">
    <mxGraphModel dx="1434" dy="788" grid="1" gridSize="10" guides="1" tooltips="1" connect="1" arrows="1" fold="1" page="1" pageScale="1" pageWidth="827" pageHeight="1169" math="0" shadow="0">
      <root>
        <mxCell id="0" />
        <mxCell id="1" parent="0" />
        <mxCell id="QQf5DuKe5eXlLjDbX7Hc-2" value="" style="swimlane;startSize=0;" parent="1" vertex="1">
          <mxGeometry x="100" y="30" width="920" height="200" as="geometry" />
        </mxCell>
        <mxCell id="QQf5DuKe5eXlLjDbX7Hc-1" value="&lt;font style=&quot;&quot;&gt;&lt;font style=&quot;font-size: 16px;&quot;&gt;表單ID(表單類型和日期編碼和張數)&lt;/font&gt;&lt;br&gt;&lt;/font&gt;" style="rounded=0;whiteSpace=wrap;html=1;" parent="QQf5DuKe5eXlLjDbX7Hc-2" vertex="1">
          <mxGeometry x="10" y="30" width="180" height="60" as="geometry" />
        </mxCell>
        <mxCell id="QQf5DuKe5eXlLjDbX7Hc-6" value="&lt;font style=&quot;font-size: 15px;&quot;&gt;表單名稱&lt;br&gt;&lt;/font&gt;" style="rounded=0;whiteSpace=wrap;html=1;" parent="QQf5DuKe5eXlLjDbX7Hc-2" vertex="1">
          <mxGeometry x="200" y="30" width="120" height="60" as="geometry" />
        </mxCell>
        <mxCell id="QQf5DuKe5eXlLjDbX7Hc-7" value="&lt;font style=&quot;font-size: 15px;&quot;&gt;申請人&lt;/font&gt;" style="rounded=0;whiteSpace=wrap;html=1;" parent="QQf5DuKe5eXlLjDbX7Hc-2" vertex="1">
          <mxGeometry x="343.5" y="30" width="120" height="60" as="geometry" />
        </mxCell>
        <mxCell id="QQf5DuKe5eXlLjDbX7Hc-8" value="&lt;font style=&quot;font-size: 15px;&quot;&gt;結果&lt;br&gt;&lt;/font&gt;" style="rounded=0;whiteSpace=wrap;html=1;" parent="QQf5DuKe5eXlLjDbX7Hc-2" vertex="1">
          <mxGeometry x="500" y="30" width="120" height="60" as="geometry" />
        </mxCell>
        <mxCell id="QQf5DuKe5eXlLjDbX7Hc-10" value="&lt;font style=&quot;font-size: 15px;&quot;&gt;申請日期&lt;br&gt;&lt;/font&gt;" style="rounded=0;whiteSpace=wrap;html=1;" parent="QQf5DuKe5eXlLjDbX7Hc-2" vertex="1">
          <mxGeometry x="20" y="120" width="120" height="60" as="geometry" />
        </mxCell>
        <mxCell id="QQf5DuKe5eXlLjDbX7Hc-11" value="&lt;font style=&quot;font-size: 15px;&quot;&gt;結案日期&lt;br&gt;&lt;/font&gt;" style="rounded=0;whiteSpace=wrap;html=1;" parent="QQf5DuKe5eXlLjDbX7Hc-2" vertex="1">
          <mxGeometry x="200" y="120" width="120" height="60" as="geometry" />
        </mxCell>
        <mxCell id="QQf5DuKe5eXlLjDbX7Hc-38" value="&lt;font style=&quot;font-size: 15px;&quot;&gt;版本號&lt;br&gt;&lt;/font&gt;" style="rounded=0;whiteSpace=wrap;html=1;" parent="QQf5DuKe5eXlLjDbX7Hc-2" vertex="1">
          <mxGeometry x="350" y="120" width="120" height="60" as="geometry" />
        </mxCell>
        <mxCell id="jcd8308LV9UEeJJ3YxGc-1" value="&lt;font style=&quot;font-size: 16px;&quot;&gt;DATA&lt;/font&gt;" style="rounded=0;whiteSpace=wrap;html=1;" parent="QQf5DuKe5eXlLjDbX7Hc-2" vertex="1">
          <mxGeometry x="670" y="30" width="230" height="150" as="geometry" />
        </mxCell>
        <mxCell id="QQf5DuKe5eXlLjDbX7Hc-14" value="" style="swimlane;startSize=0;" parent="1" vertex="1">
          <mxGeometry x="100" y="260" width="840" height="200" as="geometry" />
        </mxCell>
        <mxCell id="QQf5DuKe5eXlLjDbX7Hc-18" value="&lt;font style=&quot;font-size: 15px;&quot;&gt;關卡ID&lt;/font&gt;" style="rounded=0;whiteSpace=wrap;html=1;" parent="QQf5DuKe5eXlLjDbX7Hc-14" vertex="1">
          <mxGeometry x="20" y="20" width="120" height="60" as="geometry" />
        </mxCell>
        <mxCell id="QQf5DuKe5eXlLjDbX7Hc-19" value="&lt;font style=&quot;font-size: 16px;&quot;&gt;本站點名稱&lt;/font&gt;" style="rounded=0;whiteSpace=wrap;html=1;" parent="QQf5DuKe5eXlLjDbX7Hc-14" vertex="1">
          <mxGeometry x="180" y="20" width="120" height="60" as="geometry" />
        </mxCell>
        <mxCell id="QQf5DuKe5eXlLjDbX7Hc-20" value="&lt;font style=&quot;font-size: 16px;&quot;&gt;站點選擇&lt;/font&gt;" style="rounded=0;whiteSpace=wrap;html=1;" parent="QQf5DuKe5eXlLjDbX7Hc-14" vertex="1">
          <mxGeometry x="710" y="20" width="120" height="60" as="geometry" />
        </mxCell>
        <mxCell id="QQf5DuKe5eXlLjDbX7Hc-21" value="&lt;font style=&quot;font-size: 15px;&quot;&gt;站點負責人&lt;/font&gt;" style="rounded=0;whiteSpace=wrap;html=1;" parent="QQf5DuKe5eXlLjDbX7Hc-14" vertex="1">
          <mxGeometry x="20" y="120" width="120" height="60" as="geometry" />
        </mxCell>
        <mxCell id="QQf5DuKe5eXlLjDbX7Hc-22" value="&lt;font style=&quot;font-size: 16px;&quot;&gt;站點團體&lt;/font&gt;" style="rounded=0;whiteSpace=wrap;html=1;" parent="QQf5DuKe5eXlLjDbX7Hc-14" vertex="1">
          <mxGeometry x="180" y="120" width="120" height="60" as="geometry" />
        </mxCell>
        <mxCell id="QQf5DuKe5eXlLjDbX7Hc-23" value="&lt;font style=&quot;font-size: 16px;&quot;&gt;下一站(多站式)&lt;/font&gt;" style="rounded=0;whiteSpace=wrap;html=1;" parent="QQf5DuKe5eXlLjDbX7Hc-14" vertex="1">
          <mxGeometry x="344" y="20" width="176" height="60" as="geometry" />
        </mxCell>
        <mxCell id="QQf5DuKe5eXlLjDbX7Hc-24" value="&lt;font style=&quot;font-size: 16px;&quot;&gt;上一站&lt;/font&gt;" style="rounded=0;whiteSpace=wrap;html=1;" parent="QQf5DuKe5eXlLjDbX7Hc-14" vertex="1">
          <mxGeometry x="550" y="20" width="120" height="60" as="geometry" />
        </mxCell>
        <mxCell id="QQf5DuKe5eXlLjDbX7Hc-25" value="&lt;font style=&quot;font-size: 16px;&quot;&gt;站點模式(疑問(搶簽會簽)&lt;/font&gt;" style="rounded=0;whiteSpace=wrap;html=1;" parent="QQf5DuKe5eXlLjDbX7Hc-14" vertex="1">
          <mxGeometry x="344" y="120" width="120" height="60" as="geometry" />
        </mxCell>
        <mxCell id="cmL4jr_C4deUza1tVp-S-1" value="&lt;span style=&quot;font-size: 16px;&quot;&gt;加簽&lt;/span&gt;" style="rounded=0;whiteSpace=wrap;html=1;" parent="QQf5DuKe5eXlLjDbX7Hc-14" vertex="1">
          <mxGeometry x="490" y="120" width="120" height="60" as="geometry" />
        </mxCell>
        <mxCell id="cmL4jr_C4deUza1tVp-S-2" value="&lt;font style=&quot;font-size: 15px;&quot;&gt;限時&lt;/font&gt;" style="rounded=0;whiteSpace=wrap;html=1;" parent="QQf5DuKe5eXlLjDbX7Hc-14" vertex="1">
          <mxGeometry x="640" y="120" width="120" height="60" as="geometry" />
        </mxCell>
        <mxCell id="QQf5DuKe5eXlLjDbX7Hc-16" value="" style="swimlane;startSize=0;" parent="1" vertex="1">
          <mxGeometry x="100" y="575" width="650" height="100" as="geometry" />
        </mxCell>
        <mxCell id="QQf5DuKe5eXlLjDbX7Hc-17" value="表單ID" style="rounded=0;whiteSpace=wrap;html=1;" parent="QQf5DuKe5eXlLjDbX7Hc-16" vertex="1">
          <mxGeometry x="20" y="15" width="120" height="60" as="geometry" />
        </mxCell>
        <mxCell id="QQf5DuKe5eXlLjDbX7Hc-26" value="&lt;font style=&quot;font-size: 15px;&quot;&gt;申請人&lt;/font&gt;" style="rounded=0;whiteSpace=wrap;html=1;" parent="QQf5DuKe5eXlLjDbX7Hc-16" vertex="1">
          <mxGeometry x="180" y="15" width="120" height="60" as="geometry" />
        </mxCell>
        <mxCell id="QQf5DuKe5eXlLjDbX7Hc-27" value="&lt;font style=&quot;font-size: 15px;&quot;&gt;關卡ID&lt;/font&gt;" style="rounded=0;whiteSpace=wrap;html=1;" parent="QQf5DuKe5eXlLjDbX7Hc-16" vertex="1">
          <mxGeometry x="340" y="15" width="120" height="60" as="geometry" />
        </mxCell>
        <mxCell id="QQf5DuKe5eXlLjDbX7Hc-15" value="流程ID" style="rounded=0;whiteSpace=wrap;html=1;" parent="1" vertex="1">
          <mxGeometry x="100" y="495" width="120" height="60" as="geometry" />
        </mxCell>
        <mxCell id="QQf5DuKe5eXlLjDbX7Hc-28" value="" style="swimlane;startSize=0;" parent="1" vertex="1">
          <mxGeometry x="100" y="730" width="650" height="200" as="geometry" />
        </mxCell>
        <mxCell id="QQf5DuKe5eXlLjDbX7Hc-29" value="流程ID" style="rounded=0;whiteSpace=wrap;html=1;" parent="QQf5DuKe5eXlLjDbX7Hc-28" vertex="1">
          <mxGeometry x="20" y="20" width="120" height="60" as="geometry" />
        </mxCell>
        <mxCell id="QQf5DuKe5eXlLjDbX7Hc-31" value="&lt;font style=&quot;font-size: 15px;&quot;&gt;站點記錄&lt;br&gt;&lt;/font&gt;" style="rounded=0;whiteSpace=wrap;html=1;" parent="QQf5DuKe5eXlLjDbX7Hc-28" vertex="1">
          <mxGeometry x="180" y="20" width="120" height="60" as="geometry" />
        </mxCell>
        <mxCell id="QQf5DuKe5eXlLjDbX7Hc-33" value="&lt;font style=&quot;font-size: 15px;&quot;&gt;簽核者&lt;br&gt;&lt;/font&gt;" style="rounded=0;whiteSpace=wrap;html=1;" parent="QQf5DuKe5eXlLjDbX7Hc-28" vertex="1">
          <mxGeometry x="340" y="20" width="120" height="60" as="geometry" />
        </mxCell>
        <mxCell id="QQf5DuKe5eXlLjDbX7Hc-34" value="&lt;font style=&quot;font-size: 15px;&quot;&gt;簽核意見&lt;br&gt;&lt;/font&gt;" style="rounded=0;whiteSpace=wrap;html=1;" parent="QQf5DuKe5eXlLjDbX7Hc-28" vertex="1">
          <mxGeometry x="500" y="20" width="120" height="60" as="geometry" />
        </mxCell>
        <mxCell id="QQf5DuKe5eXlLjDbX7Hc-36" value="&lt;font style=&quot;font-size: 15px;&quot;&gt;簽核時間&lt;br&gt;&lt;/font&gt;" style="rounded=0;whiteSpace=wrap;html=1;" parent="QQf5DuKe5eXlLjDbX7Hc-28" vertex="1">
          <mxGeometry x="20" y="110" width="120" height="60" as="geometry" />
        </mxCell>
        <mxCell id="QQf5DuKe5eXlLjDbX7Hc-37" value="&lt;font style=&quot;font-size: 15px;&quot;&gt;簽核狀態(站點選擇)&lt;br&gt;&lt;/font&gt;" style="rounded=0;whiteSpace=wrap;html=1;" parent="QQf5DuKe5eXlLjDbX7Hc-28" vertex="1">
          <mxGeometry x="170" y="110" width="210" height="60" as="geometry" />
        </mxCell>
        <mxCell id="e0HPosIbsID7ALftlzHV-1" value="流程狀態(尚未啟動,運行中,暫停,結束)" style="rounded=0;whiteSpace=wrap;html=1;" parent="QQf5DuKe5eXlLjDbX7Hc-28" vertex="1">
          <mxGeometry x="400" y="110" width="230" height="60" as="geometry" />
        </mxCell>
      </root>
    </mxGraphModel>
  </diagram>
</mxfile>
